<svg xmlns="http://www.w3.org/2000/svg" viewBox="0 0 512 512"><rect width="512" height="512" rx="50" ry="50" fill="#fff9f9"/><path d="M-13.500 90L-13.500 90Q-26.550 90-35.100 83.475Q-43.650 76.950-45.900 63.900L-45.900 63.900Q-28.800 63-17.325 51.975Q-5.850 40.950 2.475 17.325Q10.800-6.300 18.450-44.550L18.450-44.550L55.800-229.500L107.100-234.900L62.550-14.400Q55.350 23.850 43.425 46.800Q31.500 69.750 17.100 79.875Q2.700 90-13.500 90ZM92.700-269.100L92.700-269.100Q78.300-269.100 68.850-276.075Q59.400-283.050 59.400-297L59.400-297Q59.400-311.850 69.525-318.825Q79.650-325.800 94.050-325.800L94.050-325.800Q108.450-325.800 117.900-318.825Q127.350-311.850 127.350-297.900L127.350-297.900Q127.350-283.050 117.225-276.075Q107.100-269.100 92.700-269.100ZM173.700 9.450L173.700 9.450Q161.100 9.450 151.650 1.350Q142.200-6.750 142.200-22.050L142.200-22.050Q142.200-31.050 144.900-47.475Q147.600-63.900 151.200-82.350Q154.800-100.800 158.625-117.675Q162.450-134.550 164.250-144.900L164.250-144.900L177.300-209.250L145.350-209.250L147.150-222.750Q168.750-230.850 189.900-244.350Q211.050-257.850 227.250-274.050L227.250-274.050L241.200-274.050L232.200-229.500L267.300-229.500L263.250-209.250L227.700-209.250L196.650-56.250Q195.300-49.050 194.400-43.425Q193.500-37.800 193.050-32.850L193.050-32.850Q192.600-20.700 197.550-15.975Q202.500-11.250 215.550-13.950L215.550-13.950Q211.500-5.400 205.425-0.450Q199.350 4.500 191.250 6.975Q183.150 9.450 173.700 9.450Z" fill="#004197" transform="translate(145.30001068115234, 373.8999938964844)"/></svg>