<svg xmlns="http://www.w3.org/2000/svg" viewBox="0 0 512 512"><rect width="512" height="512" rx="50" ry="50" fill="#fff9f9"/><path d="M111.780 86.400L111.780 86.400Q99.900 86.400 90.450 81.270Q81 76.140 76.680 65.340L76.680 65.340Q88.020 61.020 96.390 50.760Q104.760 40.500 110.430 27.270Q116.100 14.040 119.340-0.540Q122.580-15.120 125.280-28.080L125.280-28.080L171.720-271.620Q176.580-294.300 186.300-312.660Q196.020-331.020 212.220-342.090Q228.420-353.160 252.180-356.400L252.180-356.400L190.080-38.880Q183.600-4.860 173.880 23.760Q164.160 52.380 149.310 69.390Q134.460 86.400 111.780 86.400ZM86.400-210.600L86.400-210.600Q69.660-210.600 57.780-218.430Q45.900-226.260 39.420-240.300Q32.940-254.340 32.940-273.240L32.940-273.240Q32.940-299.160 45.630-323.730Q58.320-348.300 84.780-363.960Q111.240-379.620 151.200-379.620L151.200-379.620Q167.940-379.620 181.710-376.650Q195.480-373.680 207.630-369.090Q219.780-364.500 230.580-360.990Q241.380-357.480 251.640-356.400L251.640-356.400L205.200-337.500L204.660-339.120Q199.800-342.900 191.430-346.950Q183.060-351 164.160-351L164.160-351Q131.760-351 113.670-331.020Q95.580-311.040 95.580-275.400L95.580-275.400Q95.580-260.280 99.360-245.700Q103.140-231.120 110.700-217.080L110.700-217.080Q105.300-213.840 99.090-212.220Q92.880-210.600 86.400-210.600Z" fill="#004197" transform="translate(113.44000625610352, 402.6099853515625)"/></svg>